<svg class="rich-terminal" viewBox="0 0 1482 928.4" xmlns="http://www.w3.org/2000/svg">
    <!-- Generated with Rich https://www.textualize.io -->
    <style>

    @font-face {
        font-family: "Fira Code";
        src: local("FiraCode-Regular"),
                url("https://cdnjs.cloudflare.com/ajax/libs/firacode/6.2.0/woff2/FiraCode-Regular.woff2") format("woff2"),
                url("https://cdnjs.cloudflare.com/ajax/libs/firacode/6.2.0/woff/FiraCode-Regular.woff") format("woff");
        font-style: normal;
        font-weight: 400;
    }
    @font-face {
        font-family: "Fira Code";
        src: local("FiraCode-Bold"),
                url("https://cdnjs.cloudflare.com/ajax/libs/firacode/6.2.0/woff2/FiraCode-Bold.woff2") format("woff2"),
                url("https://cdnjs.cloudflare.com/ajax/libs/firacode/6.2.0/woff/FiraCode-Bold.woff") format("woff");
        font-style: bold;
        font-weight: 700;
    }

    .terminal-1591049361-matrix {
        font-family: Fira Code, monospace;
        font-size: 20px;
        line-height: 24.4px;
        font-variant-east-asian: full-width;
    }

    .terminal-1591049361-title {
        font-size: 18px;
        font-weight: bold;
        font-family: arial;
    }

    .terminal-1591049361-r1 { fill: #c5c8c6 }
.terminal-1591049361-r2 { fill: #e2e3e5 }
.terminal-1591049361-r3 { fill: #0178d4 }
.terminal-1591049361-r4 { fill: #e0e0e0 }
.terminal-1591049361-r5 { fill: #797979 }
.terminal-1591049361-r6 { fill: #262626 }
.terminal-1591049361-r7 { fill: #a0a0a0 }
.terminal-1591049361-r8 { fill: #fea62b }
.terminal-1591049361-r9 { fill: #121212 }
.terminal-1591049361-r10 { fill: #ffa62b;font-weight: bold }
.terminal-1591049361-r11 { fill: #495259 }
    </style>

    <defs>
    <clipPath id="terminal-1591049361-clip-terminal">
      <rect x="0" y="0" width="1463.0" height="877.4" />
    </clipPath>
    <clipPath id="terminal-1591049361-line-0">
    <rect x="0" y="1.5" width="1464" height="24.65"/>
            </clipPath>
<clipPath id="terminal-1591049361-line-1">
    <rect x="0" y="25.9" width="1464" height="24.65"/>
            </clipPath>
<clipPath id="terminal-1591049361-line-2">
    <rect x="0" y="50.3" width="1464" height="24.65"/>
            </clipPath>
<clipPath id="terminal-1591049361-line-3">
    <rect x="0" y="74.7" width="1464" height="24.65"/>
            </clipPath>
<clipPath id="terminal-1591049361-line-4">
    <rect x="0" y="99.1" width="1464" height="24.65"/>
            </clipPath>
<clipPath id="terminal-1591049361-line-5">
    <rect x="0" y="123.5" width="1464" height="24.65"/>
            </clipPath>
<clipPath id="terminal-1591049361-line-6">
    <rect x="0" y="147.9" width="1464" height="24.65"/>
            </clipPath>
<clipPath id="terminal-1591049361-line-7">
    <rect x="0" y="172.3" width="1464" height="24.65"/>
            </clipPath>
<clipPath id="terminal-1591049361-line-8">
    <rect x="0" y="196.7" width="1464" height="24.65"/>
            </clipPath>
<clipPath id="terminal-1591049361-line-9">
    <rect x="0" y="221.1" width="1464" height="24.65"/>
            </clipPath>
<clipPath id="terminal-1591049361-line-10">
    <rect x="0" y="245.5" width="1464" height="24.65"/>
            </clipPath>
<clipPath id="terminal-1591049361-line-11">
    <rect x="0" y="269.9" width="1464" height="24.65"/>
            </clipPath>
<clipPath id="terminal-1591049361-line-12">
    <rect x="0" y="294.3" width="1464" height="24.65"/>
            </clipPath>
<clipPath id="terminal-1591049361-line-13">
    <rect x="0" y="318.7" width="1464" height="24.65"/>
            </clipPath>
<clipPath id="terminal-1591049361-line-14">
    <rect x="0" y="343.1" width="1464" height="24.65"/>
            </clipPath>
<clipPath id="terminal-1591049361-line-15">
    <rect x="0" y="367.5" width="1464" height="24.65"/>
            </clipPath>
<clipPath id="terminal-1591049361-line-16">
    <rect x="0" y="391.9" width="1464" height="24.65"/>
            </clipPath>
<clipPath id="terminal-1591049361-line-17">
    <rect x="0" y="416.3" width="1464" height="24.65"/>
            </clipPath>
<clipPath id="terminal-1591049361-line-18">
    <rect x="0" y="440.7" width="1464" height="24.65"/>
            </clipPath>
<clipPath id="terminal-1591049361-line-19">
    <rect x="0" y="465.1" width="1464" height="24.65"/>
            </clipPath>
<clipPath id="terminal-1591049361-line-20">
    <rect x="0" y="489.5" width="1464" height="24.65"/>
            </clipPath>
<clipPath id="terminal-1591049361-line-21">
    <rect x="0" y="513.9" width="1464" height="24.65"/>
            </clipPath>
<clipPath id="terminal-1591049361-line-22">
    <rect x="0" y="538.3" width="1464" height="24.65"/>
            </clipPath>
<clipPath id="terminal-1591049361-line-23">
    <rect x="0" y="562.7" width="1464" height="24.65"/>
            </clipPath>
<clipPath id="terminal-1591049361-line-24">
    <rect x="0" y="587.1" width="1464" height="24.65"/>
            </clipPath>
<clipPath id="terminal-1591049361-line-25">
    <rect x="0" y="611.5" width="1464" height="24.65"/>
            </clipPath>
<clipPath id="terminal-1591049361-line-26">
    <rect x="0" y="635.9" width="1464" height="24.65"/>
            </clipPath>
<clipPath id="terminal-1591049361-line-27">
    <rect x="0" y="660.3" width="1464" height="24.65"/>
            </clipPath>
<clipPath id="terminal-1591049361-line-28">
    <rect x="0" y="684.7" width="1464" height="24.65"/>
            </clipPath>
<clipPath id="terminal-1591049361-line-29">
    <rect x="0" y="709.1" width="1464" height="24.65"/>
            </clipPath>
<clipPath id="terminal-1591049361-line-30">
    <rect x="0" y="733.5" width="1464" height="24.65"/>
            </clipPath>
<clipPath id="terminal-1591049361-line-31">
    <rect x="0" y="757.9" width="1464" height="24.65"/>
            </clipPath>
<clipPath id="terminal-1591049361-line-32">
    <rect x="0" y="782.3" width="1464" height="24.65"/>
            </clipPath>
<clipPath id="terminal-1591049361-line-33">
    <rect x="0" y="806.7" width="1464" height="24.65"/>
            </clipPath>
<clipPath id="terminal-1591049361-line-34">
    <rect x="0" y="831.1" width="1464" height="24.65"/>
            </clipPath>
    </defs>

    <rect fill="#292929" stroke="rgba(255,255,255,0.35)" stroke-width="1" x="1" y="1" width="1480" height="926.4" rx="8"/><text class="terminal-1591049361-title" fill="#c5c8c6" text-anchor="middle" x="740" y="27">tiny-harness</text>
            <g transform="translate(26,22)">
            <circle cx="0" cy="0" r="7" fill="#ff5f57"/>
            <circle cx="22" cy="0" r="7" fill="#febc2e"/>
            <circle cx="44" cy="0" r="7" fill="#28c840"/>
            </g>
        
    <g transform="translate(9, 41)" clip-path="url(#terminal-1591049361-clip-terminal)">
    <rect fill="#242f38" x="0" y="1.5" width="12.2" height="24.65" shape-rendering="crispEdges"/><rect fill="#242f38" x="12.2" y="1.5" width="1220" height="24.65" shape-rendering="crispEdges"/><rect fill="#242f38" x="1232.2" y="1.5" width="219.6" height="24.65" shape-rendering="crispEdges"/><rect fill="#242f38" x="1451.8" y="1.5" width="12.2" height="24.65" shape-rendering="crispEdges"/><rect fill="#121212" x="0" y="25.9" width="12.2" height="24.65" shape-rendering="crispEdges"/><rect fill="#121212" x="12.2" y="25.9" width="951.6" height="24.65" shape-rendering="crispEdges"/><rect fill="#121212" x="963.8" y="25.9" width="12.2" height="24.65" shape-rendering="crispEdges"/><rect fill="#121212" x="976" y="25.9" width="12.2" height="24.65" shape-rendering="crispEdges"/><rect fill="#121212" x="988.2" y="25.9" width="48.8" height="24.65" shape-rendering="crispEdges"/><rect fill="#121212" x="1037" y="25.9" width="12.2" height="24.65" shape-rendering="crispEdges"/><rect fill="#121212" x="1049.2" y="25.9" width="12.2" height="24.65" shape-rendering="crispEdges"/><rect fill="#121212" x="1061.4" y="25.9" width="48.8" height="24.65" shape-rendering="crispEdges"/><rect fill="#121212" x="1110.2" y="25.9" width="12.2" height="24.65" shape-rendering="crispEdges"/><rect fill="#121212" x="1122.4" y="25.9" width="12.2" height="24.65" shape-rendering="crispEdges"/><rect fill="#121212" x="1134.6" y="25.9" width="61" height="24.65" shape-rendering="crispEdges"/><rect fill="#121212" x="1195.6" y="25.9" width="12.2" height="24.65" shape-rendering="crispEdges"/><rect fill="#121212" x="1207.8" y="25.9" width="256.2" height="24.65" shape-rendering="crispEdges"/><rect fill="#121212" x="0" y="50.3" width="12.2" height="24.65" shape-rendering="crispEdges"/><rect fill="#121212" x="12.2" y="50.3" width="12.2" height="24.65" shape-rendering="crispEdges"/><rect fill="#121212" x="24.4" y="50.3" width="134.2" height="24.65" shape-rendering="crispEdges"/><rect fill="#121212" x="158.6" y="50.3" width="793" height="24.65" shape-rendering="crispEdges"/><rect fill="#121212" x="951.6" y="50.3" width="12.2" height="24.65" shape-rendering="crispEdges"/><rect fill="#121212" x="963.8" y="50.3" width="12.2" height="24.65" shape-rendering="crispEdges"/><rect fill="#121212" x="976" y="50.3" width="12.2" height="24.65" shape-rendering="crispEdges"/><rect fill="#121212" x="988.2" y="50.3" width="48.8" height="24.65" shape-rendering="crispEdges"/><rect fill="#121212" x="1037" y="50.3" width="12.2" height="24.65" shape-rendering="crispEdges"/><rect fill="#121212" x="1049.2" y="50.3" width="414.8" height="24.65" shape-rendering="crispEdges"/><rect fill="#121212" x="0" y="74.7" width="12.2" height="24.65" shape-rendering="crispEdges"/><rect fill="#121212" x="12.2" y="74.7" width="12.2" height="24.65" shape-rendering="crispEdges"/><rect fill="#121212" x="24.4" y="74.7" width="927.2" height="24.65" shape-rendering="crispEdges"/><rect fill="#121212" x="951.6" y="74.7" width="12.2" height="24.65" shape-rendering="crispEdges"/><rect fill="#121212" x="963.8" y="74.7" width="12.2" height="24.65" shape-rendering="crispEdges"/><rect fill="#121212" x="976" y="74.7" width="12.2" height="24.65" shape-rendering="crispEdges"/><rect fill="#121212" x="988.2" y="74.7" width="48.8" height="24.65" shape-rendering="crispEdges"/><rect fill="#121212" x="1037" y="74.7" width="414.8" height="24.65" shape-rendering="crispEdges"/><rect fill="#121212" x="1451.8" y="74.7" width="12.2" height="24.65" shape-rendering="crispEdges"/><rect fill="#121212" x="0" y="99.1" width="12.2" height="24.65" shape-rendering="crispEdges"/><rect fill="#121212" x="12.2" y="99.1" width="12.2" height="24.65" shape-rendering="crispEdges"/><rect fill="#121212" x="24.4" y="99.1" width="231.8" height="24.65" shape-rendering="crispEdges"/><rect fill="#121212" x="256.2" y="99.1" width="695.4" height="24.65" shape-rendering="crispEdges"/><rect fill="#121212" x="951.6" y="99.1" width="12.2" height="24.65" shape-rendering="crispEdges"/><rect fill="#121212" x="963.8" y="99.1" width="12.2" height="24.65" shape-rendering="crispEdges"/><rect fill="#121212" x="976" y="99.1" width="12.2" height="24.65" shape-rendering="crispEdges"/><rect fill="#121212" x="988.2" y="99.1" width="85.4" height="24.65" shape-rendering="crispEdges"/><rect fill="#121212" x="1073.6" y="99.1" width="378.2" height="24.65" shape-rendering="crispEdges"/><rect fill="#121212" x="1451.8" y="99.1" width="12.2" height="24.65" shape-rendering="crispEdges"/><rect fill="#121212" x="0" y="123.5" width="12.2" height="24.65" shape-rendering="crispEdges"/><rect fill="#121212" x="12.2" y="123.5" width="12.2" height="24.65" shape-rendering="crispEdges"/><rect fill="#121212" x="24.4" y="123.5" width="927.2" height="24.65" shape-rendering="crispEdges"/><rect fill="#121212" x="951.6" y="123.5" width="12.2" height="24.65" shape-rendering="crispEdges"/><rect fill="#121212" x="963.8" y="123.5" width="12.2" height="24.65" shape-rendering="crispEdges"/><rect fill="#121212" x="976" y="123.5" width="12.2" height="24.65" shape-rendering="crispEdges"/><rect fill="#121212" x="988.2" y="123.5" width="0" height="24.65" shape-rendering="crispEdges"/><rect fill="#121212" x="988.2" y="123.5" width="463.6" height="24.65" shape-rendering="crispEdges"/><rect fill="#121212" x="1451.8" y="123.5" width="12.2" height="24.65" shape-rendering="crispEdges"/><rect fill="#121212" x="0" y="147.9" width="12.2" height="24.65" shape-rendering="crispEdges"/><rect fill="#121212" x="12.2" y="147.9" width="12.2" height="24.65" shape-rendering="crispEdges"/><rect fill="#121212" x="24.4" y="147.9" width="207.4" height="24.65" shape-rendering="crispEdges"/><rect fill="#121212" x="231.8" y="147.9" width="719.8" height="24.65" shape-rendering="crispEdges"/><rect fill="#121212" x="951.6" y="147.9" width="12.2" height="24.65" shape-rendering="crispEdges"/><rect fill="#121212" x="963.8" y="147.9" width="12.2" height="24.65" shape-rendering="crispEdges"/><rect fill="#121212" x="976" y="147.9" width="12.2" height="24.65" shape-rendering="crispEdges"/><rect fill="#121212" x="988.2" y="147.9" width="146.4" height="24.65" shape-rendering="crispEdges"/><rect fill="#121212" x="1134.6" y="147.9" width="317.2" height="24.65" shape-rendering="crispEdges"/><rect fill="#121212" x="1451.8" y="147.9" width="12.2" height="24.65" shape-rendering="crispEdges"/><rect fill="#121212" x="0" y="172.3" width="12.2" height="24.65" shape-rendering="crispEdges"/><rect fill="#121212" x="12.2" y="172.3" width="12.2" height="24.65" shape-rendering="crispEdges"/><rect fill="#121212" x="24.4" y="172.3" width="927.2" height="24.65" shape-rendering="crispEdges"/><rect fill="#121212" x="951.6" y="172.3" width="12.2" height="24.65" shape-rendering="crispEdges"/><rect fill="#121212" x="963.8" y="172.3" width="12.2" height="24.65" shape-rendering="crispEdges"/><rect fill="#121212" x="976" y="172.3" width="12.2" height="24.65" shape-rendering="crispEdges"/><rect fill="#121212" x="988.2" y="172.3" width="207.4" height="24.65" shape-rendering="crispEdges"/><rect fill="#121212" x="1195.6" y="172.3" width="256.2" height="24.65" shape-rendering="crispEdges"/><rect fill="#121212" x="1451.8" y="172.3" width="12.2" height="24.65" shape-rendering="crispEdges"/><rect fill="#121212" x="0" y="196.7" width="12.2" height="24.65" shape-rendering="crispEdges"/><rect fill="#121212" x="12.2" y="196.7" width="12.2" height="24.65" shape-rendering="crispEdges"/><rect fill="#121212" x="24.4" y="196.7" width="231.8" height="24.65" shape-rendering="crispEdges"/><rect fill="#121212" x="256.2" y="196.7" width="695.4" height="24.65" shape-rendering="crispEdges"/><rect fill="#121212" x="951.6" y="196.7" width="12.2" height="24.65" shape-rendering="crispEdges"/><rect fill="#121212" x="963.8" y="196.7" width="12.2" height="24.65" shape-rendering="crispEdges"/><rect fill="#121212" x="976" y="196.7" width="12.2" height="24.65" shape-rendering="crispEdges"/><rect fill="#121212" x="988.2" y="196.7" width="292.8" height="24.65" shape-rendering="crispEdges"/><rect fill="#121212" x="1281" y="196.7" width="170.8" height="24.65" shape-rendering="crispEdges"/><rect fill="#121212" x="1451.8" y="196.7" width="12.2" height="24.65" shape-rendering="crispEdges"/><rect fill="#121212" x="0" y="221.1" width="12.2" height="24.65" shape-rendering="crispEdges"/><rect fill="#121212" x="12.2" y="221.1" width="12.2" height="24.65" shape-rendering="crispEdges"/><rect fill="#121212" x="24.4" y="221.1" width="927.2" height="24.65" shape-rendering="crispEdges"/><rect fill="#121212" x="951.6" y="221.1" width="12.2" height="24.65" shape-rendering="crispEdges"/><rect fill="#121212" x="963.8" y="221.1" width="12.2" height="24.65" shape-rendering="crispEdges"/><rect fill="#121212" x="976" y="221.1" width="488" height="24.65" shape-rendering="crispEdges"/><rect fill="#121212" x="0" y="245.5" width="12.2" height="24.65" shape-rendering="crispEdges"/><rect fill="#121212" x="12.2" y="245.5" width="12.2" height="24.65" shape-rendering="crispEdges"/><rect fill="#121212" x="24.4" y="245.5" width="927.2" height="24.65" shape-rendering="crispEdges"/><rect fill="#121212" x="951.6" y="245.5" width="12.2" height="24.65" shape-rendering="crispEdges"/><rect fill="#121212" x="963.8" y="245.5" width="12.2" height="24.65" shape-rendering="crispEdges"/><rect fill="#121212" x="976" y="245.5" width="488" height="24.65" shape-rendering="crispEdges"/><rect fill="#121212" x="0" y="269.9" width="12.2" height="24.65" shape-rendering="crispEdges"/><rect fill="#121212" x="12.2" y="269.9" width="12.2" height="24.65" shape-rendering="crispEdges"/><rect fill="#121212" x="24.4" y="269.9" width="683.2" height="24.65" shape-rendering="crispEdges"/><rect fill="#121212" x="707.6" y="269.9" width="244" height="24.65" shape-rendering="crispEdges"/><rect fill="#121212" x="951.6" y="269.9" width="12.2" height="24.65" shape-rendering="crispEdges"/><rect fill="#121212" x="963.8" y="269.9" width="12.2" height="24.65" shape-rendering="crispEdges"/><rect fill="#121212" x="976" y="269.9" width="488" height="24.65" shape-rendering="crispEdges"/><rect fill="#121212" x="0" y="294.3" width="12.2" height="24.65" shape-rendering="crispEdges"/><rect fill="#121212" x="12.2" y="294.3" width="12.2" height="24.65" shape-rendering="crispEdges"/><rect fill="#121212" x="24.4" y="294.3" width="927.2" height="24.65" shape-rendering="crispEdges"/><rect fill="#121212" x="951.6" y="294.3" width="12.2" height="24.65" shape-rendering="crispEdges"/><rect fill="#121212" x="963.8" y="294.3" width="12.2" height="24.65" shape-rendering="crispEdges"/><rect fill="#121212" x="976" y="294.3" width="488" height="24.65" shape-rendering="crispEdges"/><rect fill="#121212" x="0" y="318.7" width="12.2" height="24.65" shape-rendering="crispEdges"/><rect fill="#121212" x="12.2" y="318.7" width="12.2" height="24.65" shape-rendering="crispEdges"/><rect fill="#121212" x="24.4" y="318.7" width="927.2" height="24.65" shape-rendering="crispEdges"/><rect fill="#121212" x="951.6" y="318.7" width="12.2" height="24.65" shape-rendering="crispEdges"/><rect fill="#121212" x="963.8" y="318.7" width="12.2" height="24.65" shape-rendering="crispEdges"/><rect fill="#121212" x="976" y="318.7" width="488" height="24.65" shape-rendering="crispEdges"/><rect fill="#121212" x="0" y="343.1" width="12.2" height="24.65" shape-rendering="crispEdges"/><rect fill="#121212" x="12.2" y="343.1" width="12.2" height="24.65" shape-rendering="crispEdges"/><rect fill="#121212" x="24.4" y="343.1" width="927.2" height="24.65" shape-rendering="crispEdges"/><rect fill="#121212" x="951.6" y="343.1" width="12.2" height="24.65" shape-rendering="crispEdges"/><rect fill="#121212" x="963.8" y="343.1" width="12.2" height="24.65" shape-rendering="crispEdges"/><rect fill="#121212" x="976" y="343.1" width="488" height="24.65" shape-rendering="crispEdges"/><rect fill="#121212" x="0" y="367.5" width="12.2" height="24.65" shape-rendering="crispEdges"/><rect fill="#121212" x="12.2" y="367.5" width="12.2" height="24.65" shape-rendering="crispEdges"/><rect fill="#121212" x="24.4" y="367.5" width="927.2" height="24.65" shape-rendering="crispEdges"/><rect fill="#121212" x="951.6" y="367.5" width="12.2" height="24.65" shape-rendering="crispEdges"/><rect fill="#121212" x="963.8" y="367.5" width="12.2" height="24.65" shape-rendering="crispEdges"/><rect fill="#121212" x="976" y="367.5" width="488" height="24.65" shape-rendering="crispEdges"/><rect fill="#121212" x="0" y="391.9" width="12.2" height="24.65" shape-rendering="crispEdges"/><rect fill="#121212" x="12.2" y="391.9" width="12.2" height="24.65" shape-rendering="crispEdges"/><rect fill="#121212" x="24.4" y="391.9" width="927.2" height="24.65" shape-rendering="crispEdges"/><rect fill="#121212" x="951.6" y="391.9" width="12.2" height="24.65" shape-rendering="crispEdges"/><rect fill="#121212" x="963.8" y="391.9" width="12.2" height="24.65" shape-rendering="crispEdges"/><rect fill="#121212" x="976" y="391.9" width="488" height="24.65" shape-rendering="crispEdges"/><rect fill="#121212" x="0" y="416.3" width="12.2" height="24.65" shape-rendering="crispEdges"/><rect fill="#121212" x="12.2" y="416.3" width="12.2" height="24.65" shape-rendering="crispEdges"/><rect fill="#121212" x="24.4" y="416.3" width="927.2" height="24.65" shape-rendering="crispEdges"/><rect fill="#121212" x="951.6" y="416.3" width="12.2" height="24.65" shape-rendering="crispEdges"/><rect fill="#121212" x="963.8" y="416.3" width="12.2" height="24.65" shape-rendering="crispEdges"/><rect fill="#121212" x="976" y="416.3" width="488" height="24.65" shape-rendering="crispEdges"/><rect fill="#121212" x="0" y="440.7" width="12.2" height="24.65" shape-rendering="crispEdges"/><rect fill="#121212" x="12.2" y="440.7" width="12.2" height="24.65" shape-rendering="crispEdges"/><rect fill="#121212" x="24.4" y="440.7" width="927.2" height="24.65" shape-rendering="crispEdges"/><rect fill="#121212" x="951.6" y="440.7" width="12.2" height="24.65" shape-rendering="crispEdges"/><rect fill="#121212" x="963.8" y="440.7" width="12.2" height="24.65" shape-rendering="crispEdges"/><rect fill="#121212" x="976" y="440.7" width="488" height="24.65" shape-rendering="crispEdges"/><rect fill="#121212" x="0" y="465.1" width="12.2" height="24.65" shape-rendering="crispEdges"/><rect fill="#121212" x="12.2" y="465.1" width="12.2" height="24.65" shape-rendering="crispEdges"/><rect fill="#121212" x="24.4" y="465.1" width="927.2" height="24.65" shape-rendering="crispEdges"/><rect fill="#121212" x="951.6" y="465.1" width="12.2" height="24.65" shape-rendering="crispEdges"/><rect fill="#121212" x="963.8" y="465.1" width="12.2" height="24.65" shape-rendering="crispEdges"/><rect fill="#121212" x="976" y="465.1" width="488" height="24.65" shape-rendering="crispEdges"/><rect fill="#121212" x="0" y="489.5" width="12.2" height="24.65" shape-rendering="crispEdges"/><rect fill="#121212" x="12.2" y="489.5" width="12.2" height="24.65" shape-rendering="crispEdges"/><rect fill="#121212" x="24.4" y="489.5" width="927.2" height="24.65" shape-rendering="crispEdges"/><rect fill="#121212" x="951.6" y="489.5" width="12.2" height="24.65" shape-rendering="crispEdges"/><rect fill="#121212" x="963.8" y="489.5" width="12.2" height="24.65" shape-rendering="crispEdges"/><rect fill="#121212" x="976" y="489.5" width="488" height="24.65" shape-rendering="crispEdges"/><rect fill="#121212" x="0" y="513.9" width="12.2" height="24.65" shape-rendering="crispEdges"/><rect fill="#121212" x="12.2" y="513.9" width="12.2" height="24.65" shape-rendering="crispEdges"/><rect fill="#121212" x="24.4" y="513.9" width="927.2" height="24.65" shape-rendering="crispEdges"/><rect fill="#121212" x="951.6" y="513.9" width="12.2" height="24.65" shape-rendering="crispEdges"/><rect fill="#121212" x="963.8" y="513.9" width="12.2" height="24.65" shape-rendering="crispEdges"/><rect fill="#121212" x="976" y="513.9" width="488" height="24.65" shape-rendering="crispEdges"/><rect fill="#121212" x="0" y="538.3" width="12.2" height="24.65" shape-rendering="crispEdges"/><rect fill="#121212" x="12.2" y="538.3" width="12.2" height="24.65" shape-rendering="crispEdges"/><rect fill="#121212" x="24.4" y="538.3" width="927.2" height="24.65" shape-rendering="crispEdges"/><rect fill="#121212" x="951.6" y="538.3" width="12.2" height="24.65" shape-rendering="crispEdges"/><rect fill="#121212" x="963.8" y="538.3" width="12.2" height="24.65" shape-rendering="crispEdges"/><rect fill="#121212" x="976" y="538.3" width="488" height="24.65" shape-rendering="crispEdges"/><rect fill="#121212" x="0" y="562.7" width="12.2" height="24.65" shape-rendering="crispEdges"/><rect fill="#121212" x="12.2" y="562.7" width="12.2" height="24.65" shape-rendering="crispEdges"/><rect fill="#121212" x="24.4" y="562.7" width="927.2" height="24.65" shape-rendering="crispEdges"/><rect fill="#121212" x="951.6" y="562.7" width="12.2" height="24.65" shape-rendering="crispEdges"/><rect fill="#121212" x="963.8" y="562.7" width="12.2" height="24.65" shape-rendering="crispEdges"/><rect fill="#121212" x="976" y="562.7" width="488" height="24.65" shape-rendering="crispEdges"/><rect fill="#121212" x="0" y="587.1" width="12.2" height="24.65" shape-rendering="crispEdges"/><rect fill="#121212" x="12.2" y="587.1" width="12.2" height="24.65" shape-rendering="crispEdges"/><rect fill="#121212" x="24.4" y="587.1" width="927.2" height="24.65" shape-rendering="crispEdges"/><rect fill="#121212" x="951.6" y="587.1" width="12.2" height="24.65" shape-rendering="crispEdges"/><rect fill="#121212" x="963.8" y="587.1" width="12.2" height="24.65" shape-rendering="crispEdges"/><rect fill="#121212" x="976" y="587.1" width="488" height="24.65" shape-rendering="crispEdges"/><rect fill="#121212" x="0" y="611.5" width="12.2" height="24.65" shape-rendering="crispEdges"/><rect fill="#121212" x="12.2" y="611.5" width="12.2" height="24.65" shape-rendering="crispEdges"/><rect fill="#121212" x="24.4" y="611.5" width="927.2" height="24.65" shape-rendering="crispEdges"/><rect fill="#121212" x="951.6" y="611.5" width="12.2" height="24.65" shape-rendering="crispEdges"/><rect fill="#121212" x="963.8" y="611.5" width="12.2" height="24.65" shape-rendering="crispEdges"/><rect fill="#121212" x="976" y="611.5" width="488" height="24.65" shape-rendering="crispEdges"/><rect fill="#121212" x="0" y="635.9" width="12.2" height="24.65" shape-rendering="crispEdges"/><rect fill="#121212" x="12.2" y="635.9" width="12.2" height="24.65" shape-rendering="crispEdges"/><rect fill="#121212" x="24.4" y="635.9" width="927.2" height="24.65" shape-rendering="crispEdges"/><rect fill="#121212" x="951.6" y="635.9" width="12.2" height="24.65" shape-rendering="crispEdges"/><rect fill="#121212" x="963.8" y="635.9" width="12.2" height="24.65" shape-rendering="crispEdges"/><rect fill="#121212" x="976" y="635.9" width="488" height="24.65" shape-rendering="crispEdges"/><rect fill="#121212" x="0" y="660.3" width="12.2" height="24.65" shape-rendering="crispEdges"/><rect fill="#121212" x="12.2" y="660.3" width="12.2" height="24.65" shape-rendering="crispEdges"/><rect fill="#121212" x="24.4" y="660.3" width="927.2" height="24.65" shape-rendering="crispEdges"/><rect fill="#121212" x="951.6" y="660.3" width="12.2" height="24.65" shape-rendering="crispEdges"/><rect fill="#121212" x="963.8" y="660.3" width="12.2" height="24.65" shape-rendering="crispEdges"/><rect fill="#121212" x="976" y="660.3" width="488" height="24.65" shape-rendering="crispEdges"/><rect fill="#121212" x="0" y="684.7" width="12.2" height="24.65" shape-rendering="crispEdges"/><rect fill="#121212" x="12.2" y="684.7" width="12.2" height="24.65" shape-rendering="crispEdges"/><rect fill="#121212" x="24.4" y="684.7" width="927.2" height="24.65" shape-rendering="crispEdges"/><rect fill="#121212" x="951.6" y="684.7" width="12.2" height="24.65" shape-rendering="crispEdges"/><rect fill="#121212" x="963.8" y="684.7" width="12.2" height="24.65" shape-rendering="crispEdges"/><rect fill="#121212" x="976" y="684.7" width="488" height="24.65" shape-rendering="crispEdges"/><rect fill="#121212" x="0" y="709.1" width="12.2" height="24.65" shape-rendering="crispEdges"/><rect fill="#121212" x="12.2" y="709.1" width="12.2" height="24.65" shape-rendering="crispEdges"/><rect fill="#121212" x="24.4" y="709.1" width="927.2" height="24.65" shape-rendering="crispEdges"/><rect fill="#121212" x="951.6" y="709.1" width="12.2" height="24.65" shape-rendering="crispEdges"/><rect fill="#121212" x="963.8" y="709.1" width="12.2" height="24.65" shape-rendering="crispEdges"/><rect fill="#121212" x="976" y="709.1" width="488" height="24.65" shape-rendering="crispEdges"/><rect fill="#121212" x="0" y="733.5" width="12.2" height="24.65" shape-rendering="crispEdges"/><rect fill="#121212" x="12.2" y="733.5" width="12.2" height="24.65" shape-rendering="crispEdges"/><rect fill="#121212" x="24.4" y="733.5" width="927.2" height="24.65" shape-rendering="crispEdges"/><rect fill="#121212" x="951.6" y="733.5" width="12.2" height="24.65" shape-rendering="crispEdges"/><rect fill="#121212" x="963.8" y="733.5" width="12.2" height="24.65" shape-rendering="crispEdges"/><rect fill="#121212" x="976" y="733.5" width="488" height="24.65" shape-rendering="crispEdges"/><rect fill="#121212" x="0" y="757.9" width="12.2" height="24.65" shape-rendering="crispEdges"/><rect fill="#121212" x="12.2" y="757.9" width="12.2" height="24.65" shape-rendering="crispEdges"/><rect fill="#121212" x="24.4" y="757.9" width="927.2" height="24.65" shape-rendering="crispEdges"/><rect fill="#121212" x="951.6" y="757.9" width="12.2" height="24.65" shape-rendering="crispEdges"/><rect fill="#121212" x="963.8" y="757.9" width="12.2" height="24.65" shape-rendering="crispEdges"/><rect fill="#121212" x="976" y="757.9" width="488" height="24.65" shape-rendering="crispEdges"/><rect fill="#121212" x="0" y="782.3" width="12.2" height="24.65" shape-rendering="crispEdges"/><rect fill="#121212" x="12.2" y="782.3" width="951.6" height="24.65" shape-rendering="crispEdges"/><rect fill="#121212" x="963.8" y="782.3" width="12.2" height="24.65" shape-rendering="crispEdges"/><rect fill="#121212" x="976" y="782.3" width="488" height="24.65" shape-rendering="crispEdges"/><rect fill="#0178d4" x="0" y="806.7" width="12.2" height="24.65" shape-rendering="crispEdges"/><rect fill="#272727" x="12.2" y="806.7" width="1439.6" height="24.65" shape-rendering="crispEdges"/><rect fill="#121212" x="1451.8" y="806.7" width="12.2" height="24.65" shape-rendering="crispEdges"/><rect fill="#0178d4" x="0" y="831.1" width="12.2" height="24.65" shape-rendering="crispEdges"/><rect fill="#272727" x="12.2" y="831.1" width="24.4" height="24.65" shape-rendering="crispEdges"/><rect fill="#e0e0e0" x="36.6" y="831.1" width="12.2" height="24.65" shape-rendering="crispEdges"/><rect fill="#272727" x="48.8" y="831.1" width="256.2" height="24.65" shape-rendering="crispEdges"/><rect fill="#272727" x="305" y="831.1" width="1122.4" height="24.65" shape-rendering="crispEdges"/><rect fill="#272727" x="1427.4" y="831.1" width="24.4" height="24.65" shape-rendering="crispEdges"/><rect fill="#121212" x="1451.8" y="831.1" width="12.2" height="24.65" shape-rendering="crispEdges"/><rect fill="#242f38" x="0" y="855.5" width="48.8" height="24.65" shape-rendering="crispEdges"/><rect fill="#242f38" x="48.8" y="855.5" width="146.4" height="24.65" shape-rendering="crispEdges"/><rect fill="#242f38" x="195.2" y="855.5" width="48.8" height="24.65" shape-rendering="crispEdges"/><rect fill="#242f38" x="244" y="855.5" width="195.2" height="24.65" shape-rendering="crispEdges"/><rect fill="#242f38" x="439.2" y="855.5" width="878.4" height="24.65" shape-rendering="crispEdges"/><rect fill="#242f38" x="1317.6" y="855.5" width="12.2" height="24.65" shape-rendering="crispEdges"/><rect fill="#242f38" x="1329.8" y="855.5" width="24.4" height="24.65" shape-rendering="crispEdges"/><rect fill="#242f38" x="1354.2" y="855.5" width="97.6" height="24.65" shape-rendering="crispEdges"/><rect fill="#242f38" x="1451.8" y="855.5" width="12.2" height="24.65" shape-rendering="crispEdges"/>
    <g class="terminal-1591049361-matrix">
    <text class="terminal-1591049361-r2" x="12.2" y="20" textLength="1220" clip-path="url(#terminal-1591049361-line-0)">tiny-harness&#160;·&#160;support-agent&#160;v0.1.0&#160;·&#160;A2A&#160;1.0&#160;·&#160;http://127.0.0.1:51181/&#160;&#160;&#160;task&#160;37da…c2c5&#160;·&#160;COMPLETED</text><text class="terminal-1591049361-r1" x="1464" y="20" textLength="12.2" clip-path="url(#terminal-1591049361-line-0)">
</text><text class="terminal-1591049361-r3" x="0" y="44.4" textLength="12.2" clip-path="url(#terminal-1591049361-line-1)">╭</text><text class="terminal-1591049361-r3" x="12.2" y="44.4" textLength="951.6" clip-path="url(#terminal-1591049361-line-1)">──────────────────────────────────────────────────────────────────────────────</text><text class="terminal-1591049361-r3" x="963.8" y="44.4" textLength="12.2" clip-path="url(#terminal-1591049361-line-1)">╮</text><text class="terminal-1591049361-r4" x="988.2" y="44.4" textLength="48.8" clip-path="url(#terminal-1591049361-line-1)">Task</text><text class="terminal-1591049361-r5" x="1061.4" y="44.4" textLength="48.8" clip-path="url(#terminal-1591049361-line-1)">Plan</text><text class="terminal-1591049361-r5" x="1134.6" y="44.4" textLength="61" clip-path="url(#terminal-1591049361-line-1)">Trace</text><text class="terminal-1591049361-r1" x="1464" y="44.4" textLength="12.2" clip-path="url(#terminal-1591049361-line-1)">
</text><text class="terminal-1591049361-r3" x="0" y="68.8" textLength="12.2" clip-path="url(#terminal-1591049361-line-2)">│</text><text class="terminal-1591049361-r4" x="24.4" y="68.8" textLength="134.2" clip-path="url(#terminal-1591049361-line-2)">you&#160;›&#160;hello</text><text class="terminal-1591049361-r3" x="963.8" y="68.8" textLength="12.2" clip-path="url(#terminal-1591049361-line-2)">│</text><text class="terminal-1591049361-r6" x="976" y="68.8" textLength="12.2" clip-path="url(#terminal-1591049361-line-2)">╸</text><text class="terminal-1591049361-r3" x="988.2" y="68.8" textLength="48.8" clip-path="url(#terminal-1591049361-line-2)">━━━━</text><text class="terminal-1591049361-r6" x="1037" y="68.8" textLength="12.2" clip-path="url(#terminal-1591049361-line-2)">╺</text><text class="terminal-1591049361-r6" x="1049.2" y="68.8" textLength="414.8" clip-path="url(#terminal-1591049361-line-2)">━━━━━━━━━━━━━━━━━━━━━━━━━━━━━━━━━━</text><text class="terminal-1591049361-r1" x="1464" y="68.8" textLength="12.2" clip-path="url(#terminal-1591049361-line-2)">
</text><text class="terminal-1591049361-r3" x="0" y="93.2" textLength="12.2" clip-path="url(#terminal-1591049361-line-3)">│</text><text class="terminal-1591049361-r3" x="963.8" y="93.2" textLength="12.2" clip-path="url(#terminal-1591049361-line-3)">│</text><text class="terminal-1591049361-r4" x="988.2" y="93.2" textLength="48.8" clip-path="url(#terminal-1591049361-line-3)">Goal</text><text class="terminal-1591049361-r1" x="1464" y="93.2" textLength="12.2" clip-path="url(#terminal-1591049361-line-3)">
</text><text class="terminal-1591049361-r3" x="0" y="117.6" textLength="12.2" clip-path="url(#terminal-1591049361-line-4)">│</text><text class="terminal-1591049361-r7" x="24.4" y="117.6" textLength="231.8" clip-path="url(#terminal-1591049361-line-4)">──&#160;task&#160;→&#160;SUBMITTED</text><text class="terminal-1591049361-r3" x="963.8" y="117.6" textLength="12.2" clip-path="url(#terminal-1591049361-line-4)">│</text><text class="terminal-1591049361-r4" x="988.2" y="117.6" textLength="85.4" clip-path="url(#terminal-1591049361-line-4)">&#160;&#160;hello</text><text class="terminal-1591049361-r1" x="1464" y="117.6" textLength="12.2" clip-path="url(#terminal-1591049361-line-4)">
</text><text class="terminal-1591049361-r3" x="0" y="142" textLength="12.2" clip-path="url(#terminal-1591049361-line-5)">│</text><text class="terminal-1591049361-r3" x="963.8" y="142" textLength="12.2" clip-path="url(#terminal-1591049361-line-5)">│</text><text class="terminal-1591049361-r1" x="1464" y="142" textLength="12.2" clip-path="url(#terminal-1591049361-line-5)">
</text><text class="terminal-1591049361-r3" x="0" y="166.4" textLength="12.2" clip-path="url(#terminal-1591049361-line-6)">│</text><text class="terminal-1591049361-r7" x="24.4" y="166.4" textLength="207.4" clip-path="url(#terminal-1591049361-line-6)">──&#160;task&#160;→&#160;WORKING</text><text class="terminal-1591049361-r3" x="963.8" y="166.4" textLength="12.2" clip-path="url(#terminal-1591049361-line-6)">│</text><text class="terminal-1591049361-r4" x="988.2" y="166.4" textLength="146.4" clip-path="url(#terminal-1591049361-line-6)">Participants</text><text class="terminal-1591049361-r1" x="1464" y="166.4" textLength="12.2" clip-path="url(#terminal-1591049361-line-6)">
</text><text class="terminal-1591049361-r3" x="0" y="190.8" textLength="12.2" clip-path="url(#terminal-1591049361-line-7)">│</text><text class="terminal-1591049361-r3" x="963.8" y="190.8" textLength="12.2" clip-path="url(#terminal-1591049361-line-7)">│</text><text class="terminal-1591049361-r4" x="988.2" y="190.8" textLength="207.4" clip-path="url(#terminal-1591049361-line-7)">&#160;&#160;alice&#160;&#160;reporter</text><text class="terminal-1591049361-r1" x="1464" y="190.8" textLength="12.2" clip-path="url(#terminal-1591049361-line-7)">
</text><text class="terminal-1591049361-r3" x="0" y="215.2" textLength="12.2" clip-path="url(#terminal-1591049361-line-8)">│</text><text class="terminal-1591049361-r7" x="24.4" y="215.2" textLength="231.8" clip-path="url(#terminal-1591049361-line-8)">──&#160;task&#160;→&#160;COMPLETED</text><text class="terminal-1591049361-r3" x="963.8" y="215.2" textLength="12.2" clip-path="url(#terminal-1591049361-line-8)">│</text><text class="terminal-1591049361-r4" x="988.2" y="215.2" textLength="292.8" clip-path="url(#terminal-1591049361-line-8)">&#160;&#160;tiny-harness&#160;&#160;assignee</text><text class="terminal-1591049361-r1" x="1464" y="215.2" textLength="12.2" clip-path="url(#terminal-1591049361-line-8)">
</text><text class="terminal-1591049361-r3" x="0" y="239.6" textLength="12.2" clip-path="url(#terminal-1591049361-line-9)">│</text><text class="terminal-1591049361-r3" x="963.8" y="239.6" textLength="12.2" clip-path="url(#terminal-1591049361-line-9)">│</text><text class="terminal-1591049361-r1" x="1464" y="239.6" textLength="12.2" clip-path="url(#terminal-1591049361-line-9)">
</text><text class="terminal-1591049361-r3" x="0" y="264" textLength="12.2" clip-path="url(#terminal-1591049361-line-10)">│</text><text class="terminal-1591049361-r8" x="24.4" y="264" textLength="927.2" clip-path="url(#terminal-1591049361-line-10)">agent&#160;›&#160;The&#160;plan&#160;has&#160;been&#160;successfully&#160;created&#160;to&#160;greet&#160;the&#160;user.&#160;No&#160;further</text><text class="terminal-1591049361-r3" x="963.8" y="264" textLength="12.2" clip-path="url(#terminal-1591049361-line-10)">│</text><text class="terminal-1591049361-r1" x="1464" y="264" textLength="12.2" clip-path="url(#terminal-1591049361-line-10)">
</text><text class="terminal-1591049361-r3" x="0" y="288.4" textLength="12.2" clip-path="url(#terminal-1591049361-line-11)">│</text><text class="terminal-1591049361-r8" x="24.4" y="288.4" textLength="683.2" clip-path="url(#terminal-1591049361-line-11)">actions&#160;are&#160;required&#160;at&#160;this&#160;time.&#160;The&#160;task&#160;is&#160;complete.</text><text class="terminal-1591049361-r3" x="963.8" y="288.4" textLength="12.2" clip-path="url(#terminal-1591049361-line-11)">│</text><text class="terminal-1591049361-r1" x="1464" y="288.4" textLength="12.2" clip-path="url(#terminal-1591049361-line-11)">
</text><text class="terminal-1591049361-r3" x="0" y="312.8" textLength="12.2" clip-path="url(#terminal-1591049361-line-12)">│</text><text class="terminal-1591049361-r3" x="963.8" y="312.8" textLength="12.2" clip-path="url(#terminal-1591049361-line-12)">│</text><text class="terminal-1591049361-r1" x="1464" y="312.8" textLength="12.2" clip-path="url(#terminal-1591049361-line-12)">
</text><text class="terminal-1591049361-r3" x="0" y="337.2" textLength="12.2" clip-path="url(#terminal-1591049361-line-13)">│</text><text class="terminal-1591049361-r3" x="963.8" y="337.2" textLength="12.2" clip-path="url(#terminal-1591049361-line-13)">│</text><text class="terminal-1591049361-r1" x="1464" y="337.2" textLength="12.2" clip-path="url(#terminal-1591049361-line-13)">
</text><text class="terminal-1591049361-r3" x="0" y="361.6" textLength="12.2" clip-path="url(#terminal-1591049361-line-14)">│</text><text class="terminal-1591049361-r3" x="963.8" y="361.6" textLength="12.2" clip-path="url(#terminal-1591049361-line-14)">│</text><text class="terminal-1591049361-r1" x="1464" y="361.6" textLength="12.2" clip-path="url(#terminal-1591049361-line-14)">
</text><text class="terminal-1591049361-r3" x="0" y="386" textLength="12.2" clip-path="url(#terminal-1591049361-line-15)">│</text><text class="terminal-1591049361-r3" x="963.8" y="386" textLength="12.2" clip-path="url(#terminal-1591049361-line-15)">│</text><text class="terminal-1591049361-r1" x="1464" y="386" textLength="12.2" clip-path="url(#terminal-1591049361-line-15)">
</text><text class="terminal-1591049361-r3" x="0" y="410.4" textLength="12.2" clip-path="url(#terminal-1591049361-line-16)">│</text><text class="terminal-1591049361-r3" x="963.8" y="410.4" textLength="12.2" clip-path="url(#terminal-1591049361-line-16)">│</text><text class="terminal-1591049361-r1" x="1464" y="410.4" textLength="12.2" clip-path="url(#terminal-1591049361-line-16)">
</text><text class="terminal-1591049361-r3" x="0" y="434.8" textLength="12.2" clip-path="url(#terminal-1591049361-line-17)">│</text><text class="terminal-1591049361-r3" x="963.8" y="434.8" textLength="12.2" clip-path="url(#terminal-1591049361-line-17)">│</text><text class="terminal-1591049361-r1" x="1464" y="434.8" textLength="12.2" clip-path="url(#terminal-1591049361-line-17)">
</text><text class="terminal-1591049361-r3" x="0" y="459.2" textLength="12.2" clip-path="url(#terminal-1591049361-line-18)">│</text><text class="terminal-1591049361-r3" x="963.8" y="459.2" textLength="12.2" clip-path="url(#terminal-1591049361-line-18)">│</text><text class="terminal-1591049361-r1" x="1464" y="459.2" textLength="12.2" clip-path="url(#terminal-1591049361-line-18)">
</text><text class="terminal-1591049361-r3" x="0" y="483.6" textLength="12.2" clip-path="url(#terminal-1591049361-line-19)">│</text><text class="terminal-1591049361-r3" x="963.8" y="483.6" textLength="12.2" clip-path="url(#terminal-1591049361-line-19)">│</text><text class="terminal-1591049361-r1" x="1464" y="483.6" textLength="12.2" clip-path="url(#terminal-1591049361-line-19)">
</text><text class="terminal-1591049361-r3" x="0" y="508" textLength="12.2" clip-path="url(#terminal-1591049361-line-20)">│</text><text class="terminal-1591049361-r3" x="963.8" y="508" textLength="12.2" clip-path="url(#terminal-1591049361-line-20)">│</text><text class="terminal-1591049361-r1" x="1464" y="508" textLength="12.2" clip-path="url(#terminal-1591049361-line-20)">
</text><text class="terminal-1591049361-r3" x="0" y="532.4" textLength="12.2" clip-path="url(#terminal-1591049361-line-21)">│</text><text class="terminal-1591049361-r3" x="963.8" y="532.4" textLength="12.2" clip-path="url(#terminal-1591049361-line-21)">│</text><text class="terminal-1591049361-r1" x="1464" y="532.4" textLength="12.2" clip-path="url(#terminal-1591049361-line-21)">
</text><text class="terminal-1591049361-r3" x="0" y="556.8" textLength="12.2" clip-path="url(#terminal-1591049361-line-22)">│</text><text class="terminal-1591049361-r3" x="963.8" y="556.8" textLength="12.2" clip-path="url(#terminal-1591049361-line-22)">│</text><text class="terminal-1591049361-r1" x="1464" y="556.8" textLength="12.2" clip-path="url(#terminal-1591049361-line-22)">
</text><text class="terminal-1591049361-r3" x="0" y="581.2" textLength="12.2" clip-path="url(#terminal-1591049361-line-23)">│</text><text class="terminal-1591049361-r3" x="963.8" y="581.2" textLength="12.2" clip-path="url(#terminal-1591049361-line-23)">│</text><text class="terminal-1591049361-r1" x="1464" y="581.2" textLength="12.2" clip-path="url(#terminal-1591049361-line-23)">
</text><text class="terminal-1591049361-r3" x="0" y="605.6" textLength="12.2" clip-path="url(#terminal-1591049361-line-24)">│</text><text class="terminal-1591049361-r3" x="963.8" y="605.6" textLength="12.2" clip-path="url(#terminal-1591049361-line-24)">│</text><text class="terminal-1591049361-r1" x="1464" y="605.6" textLength="12.2" clip-path="url(#terminal-1591049361-line-24)">
</text><text class="terminal-1591049361-r3" x="0" y="630" textLength="12.2" clip-path="url(#terminal-1591049361-line-25)">│</text><text class="terminal-1591049361-r3" x="963.8" y="630" textLength="12.2" clip-path="url(#terminal-1591049361-line-25)">│</text><text class="terminal-1591049361-r1" x="1464" y="630" textLength="12.2" clip-path="url(#terminal-1591049361-line-25)">
</text><text class="terminal-1591049361-r3" x="0" y="654.4" textLength="12.2" clip-path="url(#terminal-1591049361-line-26)">│</text><text class="terminal-1591049361-r3" x="963.8" y="654.4" textLength="12.2" clip-path="url(#terminal-1591049361-line-26)">│</text><text class="terminal-1591049361-r1" x="1464" y="654.4" textLength="12.2" clip-path="url(#terminal-1591049361-line-26)">
</text><text class="terminal-1591049361-r3" x="0" y="678.8" textLength="12.2" clip-path="url(#terminal-1591049361-line-27)">│</text><text class="terminal-1591049361-r3" x="963.8" y="678.8" textLength="12.2" clip-path="url(#terminal-1591049361-line-27)">│</text><text class="terminal-1591049361-r1" x="1464" y="678.8" textLength="12.2" clip-path="url(#terminal-1591049361-line-27)">
</text><text class="terminal-1591049361-r3" x="0" y="703.2" textLength="12.2" clip-path="url(#terminal-1591049361-line-28)">│</text><text class="terminal-1591049361-r3" x="963.8" y="703.2" textLength="12.2" clip-path="url(#terminal-1591049361-line-28)">│</text><text class="terminal-1591049361-r1" x="1464" y="703.2" textLength="12.2" clip-path="url(#terminal-1591049361-line-28)">
</text><text class="terminal-1591049361-r3" x="0" y="727.6" textLength="12.2" clip-path="url(#terminal-1591049361-line-29)">│</text><text class="terminal-1591049361-r3" x="963.8" y="727.6" textLength="12.2" clip-path="url(#terminal-1591049361-line-29)">│</text><text class="terminal-1591049361-r1" x="1464" y="727.6" textLength="12.2" clip-path="url(#terminal-1591049361-line-29)">
</text><text class="terminal-1591049361-r3" x="0" y="752" textLength="12.2" clip-path="url(#terminal-1591049361-line-30)">│</text><text class="terminal-1591049361-r3" x="963.8" y="752" textLength="12.2" clip-path="url(#terminal-1591049361-line-30)">│</text><text class="terminal-1591049361-r1" x="1464" y="752" textLength="12.2" clip-path="url(#terminal-1591049361-line-30)">
</text><text class="terminal-1591049361-r3" x="0" y="776.4" textLength="12.2" clip-path="url(#terminal-1591049361-line-31)">│</text><text class="terminal-1591049361-r3" x="963.8" y="776.4" textLength="12.2" clip-path="url(#terminal-1591049361-line-31)">│</text><text class="terminal-1591049361-r1" x="1464" y="776.4" textLength="12.2" clip-path="url(#terminal-1591049361-line-31)">
</text><text class="terminal-1591049361-r3" x="0" y="800.8" textLength="12.2" clip-path="url(#terminal-1591049361-line-32)">╰</text><text class="terminal-1591049361-r3" x="12.2" y="800.8" textLength="951.6" clip-path="url(#terminal-1591049361-line-32)">──────────────────────────────────────────────────────────────────────────────</text><text class="terminal-1591049361-r3" x="963.8" y="800.8" textLength="12.2" clip-path="url(#terminal-1591049361-line-32)">╯</text><text class="terminal-1591049361-r1" x="1464" y="800.8" textLength="12.2" clip-path="url(#terminal-1591049361-line-32)">
</text><text class="terminal-1591049361-r9" x="0" y="825.2" textLength="12.2" clip-path="url(#terminal-1591049361-line-33)">▊</text><text class="terminal-1591049361-r3" x="12.2" y="825.2" textLength="1439.6" clip-path="url(#terminal-1591049361-line-33)">▔▔▔▔▔▔▔▔▔▔▔▔▔▔▔▔▔▔▔▔▔▔▔▔▔▔▔▔▔▔▔▔▔▔▔▔▔▔▔▔▔▔▔▔▔▔▔▔▔▔▔▔▔▔▔▔▔▔▔▔▔▔▔▔▔▔▔▔▔▔▔▔▔▔▔▔▔▔▔▔▔▔▔▔▔▔▔▔▔▔▔▔▔▔▔▔▔▔▔▔▔▔▔▔▔▔▔▔▔▔▔▔▔▔▔▔▔▔</text><text class="terminal-1591049361-r3" x="1451.8" y="825.2" textLength="12.2" clip-path="url(#terminal-1591049361-line-33)">▎</text><text class="terminal-1591049361-r1" x="1464" y="825.2" textLength="12.2" clip-path="url(#terminal-1591049361-line-33)">
</text><text class="terminal-1591049361-r9" x="0" y="849.6" textLength="12.2" clip-path="url(#terminal-1591049361-line-34)">▊</text><text class="terminal-1591049361-r9" x="36.6" y="849.6" textLength="12.2" clip-path="url(#terminal-1591049361-line-34)">E</text><text class="terminal-1591049361-r5" x="48.8" y="849.6" textLength="256.2" clip-path="url(#terminal-1591049361-line-34)">nter&#160;to&#160;send&#160;as&#160;alice</text><text class="terminal-1591049361-r3" x="1451.8" y="849.6" textLength="12.2" clip-path="url(#terminal-1591049361-line-34)">▎</text><text class="terminal-1591049361-r1" x="1464" y="849.6" textLength="12.2" clip-path="url(#terminal-1591049361-line-34)">
</text><text class="terminal-1591049361-r10" x="0" y="874" textLength="48.8" clip-path="url(#terminal-1591049361-line-35)">&#160;^c&#160;</text><text class="terminal-1591049361-r4" x="48.8" y="874" textLength="146.4" clip-path="url(#terminal-1591049361-line-35)">cancel&#160;task&#160;</text><text class="terminal-1591049361-r10" x="195.2" y="874" textLength="48.8" clip-path="url(#terminal-1591049361-line-35)">&#160;f2&#160;</text><text class="terminal-1591049361-r4" x="244" y="874" textLength="195.2" clip-path="url(#terminal-1591049361-line-35)">task/plan/trace&#160;</text><text class="terminal-1591049361-r11" x="1317.6" y="874" textLength="12.2" clip-path="url(#terminal-1591049361-line-35)">▏</text><text class="terminal-1591049361-r10" x="1329.8" y="874" textLength="24.4" clip-path="url(#terminal-1591049361-line-35)">^p</text><text class="terminal-1591049361-r4" x="1354.2" y="874" textLength="97.6" clip-path="url(#terminal-1591049361-line-35)">&#160;palette</text>
    </g>
    </g>
</svg>
